<svg width="150" height="26" viewBox="0 0 150 26" fill="none" xmlns="http://www.w3.org/2000/svg">
<path d="M37.4727 4.38341C36.8861 4.38341 36.3814 4.16515 35.9449 3.74227C35.5083 3.30575 35.3037 2.80102 35.3037 2.21444C35.3037 1.62786 35.522 1.10949 35.9449 0.672972C36.3814 0.23645 36.8861 0.0181885 37.4727 0.0181885C38.0729 0.0181885 38.5913 0.23645 39.0278 0.672972C39.4643 1.10949 39.6689 1.62786 39.6689 2.21444C39.6689 2.80102 39.4507 3.30575 39.0278 3.74227C38.5913 4.16515 38.0729 4.38341 37.4727 4.38341ZM35.522 19.8254V6.04765H39.1506V19.8254H35.522Z" fill="#2BDE73"/>
<path d="M49.5042 5.65207C51.0048 5.65207 52.2325 6.1568 53.2147 7.16626C54.1968 8.17571 54.6743 9.56713 54.6743 11.3541V19.8254H51.0457V11.7907C51.0457 10.8767 50.9093 10.1673 50.4182 9.6899C49.9271 9.19881 49.3132 8.95327 48.4947 8.95327C47.5808 8.95327 46.7487 9.23974 46.203 9.81267C45.6573 10.3856 45.289 11.2314 45.289 12.3772V19.8391H41.7832V6.06131H45.289V7.58914C46.1621 6.29321 47.6353 5.65207 49.5042 5.65207Z" fill="#2BDE73"/>
<path d="M60.0765 9.94909C60.0765 10.3174 60.322 10.6175 60.8131 10.8494C61.3042 11.0813 61.8908 11.2859 62.5865 11.4496C63.2822 11.627 63.9779 11.8452 64.6736 12.1044C65.3693 12.3772 65.9695 12.8138 66.447 13.4413C66.9381 14.0688 67.1836 14.8463 67.1836 15.7876C67.1836 17.2063 66.6516 18.2839 65.6012 19.0479C64.5508 19.8118 63.2276 20.1937 61.6452 20.1937C58.8215 20.1937 56.8844 19.1024 55.8613 16.9198L58.9443 15.1874C59.3535 16.3878 60.2538 16.9744 61.6452 16.9744C62.9139 16.9744 63.5414 16.5788 63.5414 15.7876C63.5414 15.4193 63.2958 15.1192 62.8048 14.8873C62.3137 14.6553 61.7271 14.4507 61.0314 14.2734C60.3357 14.0961 59.64 13.8642 58.9443 13.5913C58.2486 13.3185 57.6483 12.882 57.1709 12.2818C56.6798 11.6815 56.4343 10.9313 56.4343 10.0309C56.4343 8.6668 56.939 7.60278 57.9348 6.82522C58.9306 6.04767 60.1856 5.65207 61.6725 5.65207C62.7911 5.65207 63.8142 5.91125 64.7282 6.41598C65.6422 6.92071 66.3651 7.6437 66.9108 8.58496L63.8824 10.2356C63.4459 9.2943 62.7093 8.8305 61.6725 8.8305C61.2087 8.8305 60.8268 8.92599 60.5267 9.13061C60.2266 9.32159 60.0765 9.59441 60.0765 9.94909Z" fill="#2BDE73"/>
<path d="M76.705 9.43071H73.5811V15.1737C73.5811 15.6512 73.7994 16.0058 74.0449 16.2241C74.2768 16.4424 74.5906 16.5651 75.0544 16.5924C75.5182 16.6197 76.0911 16.6197 76.7186 16.5788V19.7981C74.345 20.0709 72.5717 19.839 71.5758 19.1161C70.58 18.3794 70.0889 17.0698 70.0889 15.1737V9.43071H67.7153V6.0613H70.0889V3.25119L73.5948 2.17352V6.04766H76.7186V9.43071H76.705Z" fill="#2BDE73"/>
<path d="M88.7233 6.06131H92.2292V19.8391H88.7233V18.1885C87.5911 19.5253 86.2406 20.1937 84.3172 20.1937C82.4756 20.1937 80.9478 19.498 79.6382 18.093C78.3286 16.6879 77.6875 14.9691 77.6875 12.9229C77.6875 10.8767 78.3559 9.15789 79.6655 7.75283C80.9751 6.34778 82.4756 5.65207 84.3035 5.65207C86.227 5.65207 87.5911 6.32049 88.7097 7.65734V6.06131H88.7233ZM82.3392 15.7194C83.0622 16.4424 83.9625 16.8107 85.0675 16.8107C86.1724 16.8107 87.0864 16.4424 87.8094 15.7194C88.5324 14.9964 88.9007 14.0688 88.9007 12.9229C88.9007 11.7907 88.5324 10.8494 87.8094 10.1264C87.0864 9.40343 86.1724 9.03512 85.0675 9.03512C83.9625 9.03512 83.0622 9.40343 82.3392 10.1264C81.6298 10.8494 81.2615 11.777 81.2615 12.9229C81.2615 14.0551 81.6298 14.9964 82.3392 15.7194Z" fill="#2BDE73"/>
<path d="M98.4904 15.1328C98.4904 15.6102 98.6541 15.9649 98.8997 16.1832C99.1316 16.4014 99.4044 16.5242 99.8682 16.5515C100.332 16.5788 100.878 16.5788 101.505 16.5378V19.7572C99.1316 20.03 97.3582 19.7981 96.3624 19.0751C95.3666 18.3385 94.8755 17.0289 94.8755 15.1328V2.17352H98.4904V15.1328Z" fill="#2BDE73"/>
<path d="M106.239 14.3143C106.716 16.0604 108.012 16.9198 110.127 16.9198C111.491 16.9198 112.514 16.4696 113.209 15.542L116.074 17.1926C114.71 19.157 112.718 20.1392 110.072 20.1392C107.794 20.1392 105.966 19.4571 104.588 18.0793C103.21 16.7015 102.528 14.9691 102.528 12.8683C102.528 10.7948 103.21 9.0624 104.561 7.67099C105.925 6.27957 107.657 5.5975 109.799 5.5975C111.818 5.5975 113.482 6.29321 114.792 7.68463C116.101 9.07604 116.756 10.7948 116.756 12.8547C116.756 13.3185 116.715 13.8096 116.62 14.3007H106.239V14.3143ZM106.184 11.5588H113.209C113.005 10.6857 112.596 9.93545 111.954 9.47164C111.327 9.00784 110.604 8.78957 109.786 8.78957C108.831 8.78957 108.039 9.02148 107.412 9.51256C106.798 10.0037 106.389 10.6857 106.184 11.5588Z" fill="#2BDE73"/>
<path d="M128.91 6.06131H132.416V19.8391H128.91V18.1475C127.778 19.4844 126.414 20.1528 124.491 20.1528C122.649 20.1528 121.107 19.4571 119.798 18.052C118.488 16.647 117.847 14.9282 117.847 12.882C117.847 10.8358 118.516 9.11697 119.825 7.71191C121.135 6.30685 122.649 5.61115 124.491 5.61115C126.414 5.61115 127.792 6.27957 128.924 7.61642V6.06131H128.91ZM122.485 15.6784C123.208 16.4014 124.109 16.7698 125.214 16.7698C126.318 16.7698 127.232 16.4014 127.955 15.6784C128.678 14.9555 129.047 14.0278 129.047 12.882C129.047 11.7497 128.678 10.8085 127.955 10.0855C127.232 9.36251 126.318 8.9942 125.214 8.9942C124.109 8.9942 123.208 9.36251 122.485 10.0855C121.776 10.8085 121.408 11.7361 121.408 12.882C121.421 14.0142 121.776 14.9555 122.485 15.6784Z" fill="#2BDE73"/>
<path d="M143.22 5.61115C145.076 5.61115 146.699 6.30685 148.008 7.71191C149.318 9.11697 150 10.8358 150 12.882C150 14.9282 149.359 16.647 148.036 18.052C146.726 19.4571 145.076 20.1528 143.22 20.1528C141.297 20.1528 139.687 19.4844 138.691 18.1475V25.3501H135.186V6.06131H138.691V7.63006C139.687 6.27957 141.283 5.61115 143.22 5.61115ZM139.892 15.6784C140.601 16.4014 141.515 16.7697 142.62 16.7697C143.725 16.7697 144.639 16.4014 145.362 15.6784C146.085 14.9555 146.453 14.0278 146.453 12.882C146.453 11.7497 146.085 10.8085 145.362 10.0855C144.639 9.36251 143.725 8.99419 142.62 8.99419C141.515 8.99419 140.615 9.36251 139.892 10.0855C139.169 10.8085 138.814 11.7361 138.814 12.882C138.828 14.0142 139.182 14.9555 139.892 15.6784Z" fill="#2BDE73"/>
<path d="M20.421 25.2819H8.41662C7.59814 25.2819 6.94336 24.5999 6.94336 23.7814C6.94336 22.9629 7.59814 22.2808 8.41662 22.2808H20.421C20.571 22.2808 20.7075 22.2126 20.7757 22.0899L26.1231 12.841C26.1913 12.7183 26.1913 12.5546 26.1231 12.4318L20.7757 3.16934C20.7075 3.04656 20.5574 2.96472 20.421 2.96472H8.41662C7.59814 2.96472 6.94336 2.32357 6.94336 1.50509C6.94336 0.686614 7.59814 0.0454712 8.41662 0.0454712H20.421C21.6214 0.0454712 22.74 0.672972 23.3402 1.70971L28.6876 10.9585C29.2878 11.9953 29.2878 13.2776 28.6876 14.3279L23.3266 23.604C22.74 24.6408 21.6214 25.2819 20.421 25.2819Z" fill="#2BDE73"/>
<path d="M15.6465 8.54403H4.8699C4.09234 8.54403 3.46484 7.91653 3.46484 7.13897V7.04348C3.46484 6.26593 4.09234 5.63843 4.8699 5.63843H15.6602C16.4377 5.63843 17.0652 6.26593 17.0652 7.04348V7.13897C17.0652 7.91653 16.4241 8.54403 15.6465 8.54403Z" fill="#2BDE73"/>
<path d="M12.1953 14.1233H1.40506C0.627501 14.1233 0 13.4958 0 12.7183V12.6228C0 11.8452 0.627501 11.2177 1.40506 11.2177H12.1953C12.9729 11.2177 13.6004 11.8452 13.6004 12.6228V12.7183C13.6004 13.4958 12.9729 14.1233 12.1953 14.1233Z" fill="#2BDE73"/>
<path d="M15.6465 19.6344H4.8699C4.09234 19.6344 3.46484 19.0069 3.46484 18.2294V18.1339C3.46484 17.3563 4.09234 16.7288 4.8699 16.7288H15.6602C16.4377 16.7288 17.0652 17.3563 17.0652 18.1339V18.2294C17.0652 18.9933 16.4241 19.6344 15.6465 19.6344Z" fill="#2BDE73"/>
</svg>
