<svg id="Layer_1" data-name="Layer 1" xmlns="http://www.w3.org/2000/svg" viewBox="0 0 222.73 60.48"><defs><style>.cls-1{fill:#1d1e1c;}.cls-2{fill:#c51618;}</style></defs><title>HomeElementos</title><g id="_Group_" data-name="&lt;Group&gt;"><g id="_Group_2" data-name="&lt;Group&gt;"><g id="_Group_3" data-name="&lt;Group&gt;"><g id="_Group_4" data-name="&lt;Group&gt;"><g id="_Group_5" data-name="&lt;Group&gt;"><g id="_Group_6" data-name="&lt;Group&gt;"><g id="_Group_7" data-name="&lt;Group&gt;"><path id="_Compound_Path_" data-name="&lt;Compound Path&gt;" class="cls-1" d="M72.07,16.35h4.78v9a7.25,7.25,0,0,1-.43,2.52A5.48,5.48,0,0,1,75.08,30a5.42,5.42,0,0,1-1.92,1.25,9.83,9.83,0,0,1-3.36.5,22.32,22.32,0,0,1-2.47-.15,6.69,6.69,0,0,1-2.24-.61,5.7,5.7,0,0,1-1.64-1.3,4.78,4.78,0,0,1-1-1.74A8.69,8.69,0,0,1,62,25.35v-9h4.79v9.21a2.58,2.58,0,0,0,.7,1.93,3.1,3.1,0,0,0,3.89,0,2.58,2.58,0,0,0,.71-1.94Z"/><path id="_Compound_Path_2" data-name="&lt;Compound Path&gt;" class="cls-1" d="M79.62,16.35H84.1l5.84,8.35V16.35h4.52v15.1H89.94l-5.81-8.29v8.29H79.62Z"/><path id="_Compound_Path_3" data-name="&lt;Compound Path&gt;" class="cls-1" d="M97.4,16.35h4.8v15.1H97.4Z"/><path id="_Compound_Path_4" data-name="&lt;Compound Path&gt;" class="cls-1" d="M103.68,16.35h5l3.49,10.87,3.45-10.87h4.87l-5.76,15.1h-5.2Z"/><path id="_Compound_Path_5" data-name="&lt;Compound Path&gt;" class="cls-1" d="M121.62,16.35h12.84v3.23h-8V22h7.46v3.08h-7.46v3h8.28v3.42H121.62Z"/><path id="_Compound_Path_6" data-name="&lt;Compound Path&gt;" class="cls-1" d="M136.91,31.45V16.35h8a12.12,12.12,0,0,1,3.39.37,3.62,3.62,0,0,1,1.9,1.38,4.07,4.07,0,0,1,.72,2.44,4.19,4.19,0,0,1-.55,2.17,4.31,4.31,0,0,1-1.52,1.48,6,6,0,0,1-1.68.6,5.05,5.05,0,0,1,1.25.55,5.06,5.06,0,0,1,.76.8,5.22,5.22,0,0,1,.67.93l2.33,4.38h-5.42l-2.56-4.62a3.74,3.74,0,0,0-.87-1.16,2.09,2.09,0,0,0-1.17-.35h-.43v6.13Zm4.81-9h2a7.29,7.29,0,0,0,1.27-.21,1.27,1.27,0,0,0,.78-.47,1.51,1.51,0,0,0-.17-2,3,3,0,0,0-1.79-.39h-2.11Z"/><path id="_Compound_Path_7" data-name="&lt;Compound Path&gt;" class="cls-1" d="M152.43,26.45l4.56-.27a3.32,3.32,0,0,0,.6,1.64,2.58,2.58,0,0,0,2.12.92,2.4,2.4,0,0,0,1.58-.47,1.32,1.32,0,0,0,0-2.14,6.13,6.13,0,0,0-2.46-.87,10.55,10.55,0,0,1-4.49-1.83A3.65,3.65,0,0,1,153,20.51a3.85,3.85,0,0,1,.7-2.2,4.5,4.5,0,0,1,2.08-1.62,9.88,9.88,0,0,1,3.81-.59,8,8,0,0,1,4.54,1.07A4.63,4.63,0,0,1,166,20.59l-4.52.26a2.31,2.31,0,0,0-.76-1.48,2.47,2.47,0,0,0-1.59-.46,2,2,0,0,0-1.26.34,1.05,1.05,0,0,0-.42.84.83.83,0,0,0,.34.65,4.06,4.06,0,0,0,1.61.55,20.24,20.24,0,0,1,4.5,1.34,4.7,4.7,0,0,1,2,1.67,4.11,4.11,0,0,1,.62,2.24,4.67,4.67,0,0,1-.82,2.67,5.1,5.1,0,0,1-2.31,1.86,9.58,9.58,0,0,1-3.73.63q-4,0-5.49-1.48A5.77,5.77,0,0,1,152.43,26.45Z"/><path id="_Compound_Path_8" data-name="&lt;Compound Path&gt;" class="cls-1" d="M168.67,16.35h4.81v15.1h-4.81Z"/><path id="_Compound_Path_9" data-name="&lt;Compound Path&gt;" class="cls-1" d="M176.55,16.35h7.12a8.77,8.77,0,0,1,3.4.56,5.52,5.52,0,0,1,2.14,1.59,6.76,6.76,0,0,1,1.23,2.42,11.15,11.15,0,0,1,.38,2.93,9.84,9.84,0,0,1-.57,3.75,6.13,6.13,0,0,1-1.57,2.24A5,5,0,0,1,186.52,31a11.16,11.16,0,0,1-2.85.42h-7.12Zm4.79,3.42V28h1.17a5,5,0,0,0,2.14-.33,2.19,2.19,0,0,0,1-1.13,6.93,6.93,0,0,0,.36-2.62,5,5,0,0,0-.8-3.28,3.46,3.46,0,0,0-2.67-.89Z"/><path id="_Compound_Path_10" data-name="&lt;Compound Path&gt;" class="cls-1" d="M201.51,29h-5.44l-.76,2.5h-4.89l5.83-15.1h5.23l5.82,15.1h-5Zm-1-3.26-1.71-5.43-1.69,5.43Z"/><path id="_Compound_Path_11" data-name="&lt;Compound Path&gt;" class="cls-1" d="M208.46,16.35h7.12a8.73,8.73,0,0,1,3.4.56,5.52,5.52,0,0,1,2.14,1.59,6.45,6.45,0,0,1,1.23,2.42,11.15,11.15,0,0,1,.38,2.93,9.84,9.84,0,0,1-.57,3.75,6.13,6.13,0,0,1-1.57,2.24A5.07,5.07,0,0,1,218.44,31a11.3,11.3,0,0,1-2.86.42h-7.12Zm4.79,3.42V28h1.17a5,5,0,0,0,2.14-.33,2.16,2.16,0,0,0,1-1.13,6.93,6.93,0,0,0,.36-2.62,4.94,4.94,0,0,0-.81-3.28,3.44,3.44,0,0,0-2.66-.89Z"/></g><g id="_Group_8" data-name="&lt;Group&gt;"><path id="_Compound_Path_12" data-name="&lt;Compound Path&gt;" class="cls-1" d="M62,36.57h7.15a8.79,8.79,0,0,1,3.41.56,5.48,5.48,0,0,1,2.15,1.6,6.38,6.38,0,0,1,1.23,2.42,10.67,10.67,0,0,1,.38,2.92,10.07,10.07,0,0,1-.56,3.75,6.27,6.27,0,0,1-1.58,2.24A5.21,5.21,0,0,1,72,51.26a11.65,11.65,0,0,1-2.86.41H62ZM66.8,40v8.25H68a5.16,5.16,0,0,0,2.14-.32,2.23,2.23,0,0,0,1-1.14,6.93,6.93,0,0,0,.36-2.62,5,5,0,0,0-.8-3.28A3.49,3.49,0,0,0,68,40Z"/><path id="_Compound_Path_13" data-name="&lt;Compound Path&gt;" class="cls-1" d="M79.7,36.57H92.59V39.8H84.52v2.4H92v3.07H84.52v3h8.3v3.42H79.7Z"/><path id="_Compound_Path_14" data-name="&lt;Compound Path&gt;" class="cls-1" d="M97.15,36.57H102V48h7.51v3.72H97.15Z"/><path id="_Compound_Path_15" data-name="&lt;Compound Path&gt;" class="cls-1" d="M133.94,36.57h4.49l5.86,8.35V36.57h4.53v15.1h-4.53l-5.83-8.29v8.29h-4.52Z"/><path id="_Compound_Path_16" data-name="&lt;Compound Path&gt;" class="cls-1" d="M153.16,44.13a7.62,7.62,0,0,1,2.12-5.75,8.09,8.09,0,0,1,5.91-2.06,8.29,8.29,0,0,1,6,2,7.51,7.51,0,0,1,2.1,5.67,9,9,0,0,1-.92,4.34A6.4,6.4,0,0,1,165.71,51a9,9,0,0,1-4.33,1,10.13,10.13,0,0,1-4.36-.82,6.44,6.44,0,0,1-2.79-2.57A8.31,8.31,0,0,1,153.16,44.13Zm4.8,0a5,5,0,0,0,.88,3.29,3.4,3.4,0,0,0,4.78,0,5.46,5.46,0,0,0,.85-3.51,4.6,4.6,0,0,0-.88-3.12,3.12,3.12,0,0,0-2.41-1,2.93,2.93,0,0,0-2.33,1A4.92,4.92,0,0,0,158,44.15Z"/><path id="_Compound_Path_17" data-name="&lt;Compound Path&gt;" class="cls-1" d="M173.68,51.67V36.57h8a12.28,12.28,0,0,1,3.41.37,3.62,3.62,0,0,1,1.9,1.38,4.52,4.52,0,0,1,.17,4.61,4.23,4.23,0,0,1-1.52,1.48A6,6,0,0,1,184,45a4.88,4.88,0,0,1,1.25.55,4.59,4.59,0,0,1,.77.8,6,6,0,0,1,.68.93L189,51.67h-5.44L181,47.06a3.69,3.69,0,0,0-.87-1.17,2.1,2.1,0,0,0-1.18-.35h-.42v6.13Zm4.83-9h2a7.35,7.35,0,0,0,1.28-.21,1.27,1.27,0,0,0,.78-.47,1.5,1.5,0,0,0-.18-2,2.93,2.93,0,0,0-1.79-.39h-2.11Z"/><path id="_Compound_Path_18" data-name="&lt;Compound Path&gt;" class="cls-1" d="M191,36.57H205.6V40.3h-4.91V51.67h-4.81V40.3H191Z"/><path id="_Compound_Path_19" data-name="&lt;Compound Path&gt;" class="cls-1" d="M209.5,36.57h12.89V39.8h-8.06v2.4h7.48v3.07h-7.48v3h8.3v3.42H209.5Z"/></g><g id="_Group_9" data-name="&lt;Group&gt;"><g id="_Group_10" data-name="&lt;Group&gt;"><g id="_Group_11" data-name="&lt;Group&gt;"><path id="_Path_" data-name="&lt;Path&gt;" class="cls-1" d="M48.29,53.22c0-.29-.09-.93-1.23-.92l-39.75.07c-1.24.06-1.39.66-1.61,1.5-.73,3-.7,2.74-1.34,5.49-.06.44-.26,1.15.79,1.12l21-4.87a6.32,6.32,0,0,1,1.79,0c8,1.9,13.38,3,21.31,4.87.69,0,.84-.44.74-1-.85-3.14-.88-3.14-1.74-6.27"/></g></g><g id="_Group_12" data-name="&lt;Group&gt;"><g id="_Group_13" data-name="&lt;Group&gt;"><path id="_Path_2" data-name="&lt;Path&gt;" class="cls-1" d="M25.07,51.67c1.77,0,1.83-.6,1.83-1.71,0-18.32,0-31.34,0-49.65a.34.34,0,0,0-.64-.12c-1.86,6.08-4.1,10.54-6.3,15.63-.29.41-.56.52-1.56.54-6.38.05-10.34-.08-16.7,0-.84,0-1.7.21-1.72,1.84v31.7c0,.84.13,1.79,1.82,1.79H25.07Z"/></g></g><g id="_Group_14" data-name="&lt;Group&gt;"><g id="_Group_15" data-name="&lt;Group&gt;"><path id="_Path_3" data-name="&lt;Path&gt;" class="cls-1" d="M53,16.34c-6.32-.05-10.32.07-16.7,0-1,0-1.25-.13-1.53-.54C32.51,10.55,30.42,6,28.41.19a.33.33,0,0,0-.63.12c0,18.31,0,31.33,0,49.65,0,1.11,0,1.71,1.8,1.71H52.87c1.71,0,1.81-1,1.81-1.79V18.18c0-1.63-.86-1.82-1.72-1.84"/></g></g><g id="_Group_16" data-name="&lt;Group&gt;"><g id="_Group_17" data-name="&lt;Group&gt;"><path id="_Path_4" data-name="&lt;Path&gt;" class="cls-2" d="M25,38.56a12.9,12.9,0,0,1-.82,4.81,9.57,9.57,0,0,1-2.34,3.57,9.85,9.85,0,0,1-3.72,2.22,15.67,15.67,0,0,1-4.87.73c-3.72,0-6.62-1-8.66-3S1.5,42.19,1.5,38.56V19.4H8.91V38.11a17.82,17.82,0,0,0,.19,2.52,5.41,5.41,0,0,0,.69,2A3.66,3.66,0,0,0,11.13,44a3.94,3.94,0,0,0,2.14.51A3.86,3.86,0,0,0,15.33,44a3.76,3.76,0,0,0,1.35-1.31,6,6,0,0,0,.73-2,13.31,13.31,0,0,0,.21-2.52V19.4H25Z"/></g></g><g id="_Group_18" data-name="&lt;Group&gt;"><g id="_Group_19" data-name="&lt;Group&gt;"><polygon id="_Path_5" data-name="&lt;Path&gt;" class="cls-2" points="43.02 49.4 35.78 27.32 35.78 49.4 29.47 49.4 29.47 19.4 39.54 19.4 46.77 41.49 46.77 19.4 53.09 19.4 53.09 49.4 43.02 49.4"/></g></g></g></g></g></g></g></g></g></svg>